HIERARCHY
ROOT Hips
{
	OFFSET 0.00000 0.00000 0.00000
	CHANNELS 6 Xposition Yposition Zposition Zrotation Yrotation Xrotation 
	JOINT RightUpLegDummy
	{
		OFFSET 0 0 0
		CHANNELS 3 Zrotation Yrotation Xrotation
		JOINT RightUpLeg
		{
			OFFSET -3.52197 -3.41223 0.04002
			CHANNELS 3 Zrotation Yrotation Xrotation
			JOINT RightLeg
			{
				OFFSET 0.00006 -17.42390 1.60435
				CHANNELS 3 Zrotation Yrotation Xrotation
				JOINT RightFoot
				{
					OFFSET 0.06153 -16.50078 -1.63901
					CHANNELS 3 Zrotation Yrotation Xrotation
					JOINT RightToes
					{
						OFFSET 0.00298 -1.73825 3.34613
						CHANNELS 3 Zrotation Yrotation Xrotation
						End Site
						{
							OFFSET 0.00480 -0.05416 3.85043
						}
					}
				}
			}
		}
	}
	JOINT SpineDummy
	{
		OFFSET 0 0 0
		CHANNELS 3 Zrotation Yrotation Xrotation
		JOINT Spine
		{
			OFFSET 0.00000 4.68130 0.00000
			CHANNELS 3 Zrotation Yrotation Xrotation
			JOINT Spine1
			{
				OFFSET -0.00000 10.10138 0.05002
				CHANNELS 3 Zrotation Yrotation Xrotation
				JOINT HEadDummy
				{
					OFFSET 0 0 0
					CHANNELS 3 Zrotation Yrotation Xrotation
					JOINT Head
					{
						OFFSET -0.00000 3.43865 0.00438
						CHANNELS 3 Zrotation Yrotation Xrotation
						End Site
						{
							OFFSET -0.11417 5.02924 0.98962
						}
					}
				}
				JOINT LeftShoulder1Dummy
				{
					OFFSET 0 0 0
					CHANNELS 3 Zrotation Yrotation Xrotation
					JOINT LeftShoulder1
					{
						OFFSET 3.53937 -0.14262 -0.08662
						CHANNELS 3 Zrotation Yrotation Xrotation
						JOINT LeftArm
						{
							OFFSET 4.04833 -0.00133 0.12681
							CHANNELS 3 Zrotation Yrotation Xrotation
							JOINT LeftForeArm
							{
								OFFSET 10.33880 -0.01036 -0.55515
								CHANNELS 3 Zrotation Yrotation Xrotation
								JOINT LeftHand
								{
									OFFSET 8.69677 0.07543 0.40060
									CHANNELS 3 Zrotation Yrotation Xrotation
									End Site
									{
										OFFSET 5.28377 -0.21905 0.59205
									}
								}
							}
						}
					}
				}
				JOINT RightShoulderDummy
				{
					OFFSET 0 0 0
					CHANNELS 3 Zrotation Yrotation Xrotation
					JOINT RightShoulder
					{
						OFFSET -3.53937 -0.14262 -0.08660
						CHANNELS 3 Zrotation Yrotation Xrotation
						JOINT RightArm
						{
							OFFSET -4.04833 -0.00133 0.12683
							CHANNELS 3 Zrotation Yrotation Xrotation
							JOINT RightForeArm
							{
								OFFSET -10.37987 -0.01039 -0.55511
								CHANNELS 3 Zrotation Yrotation Xrotation
								JOINT RightHand
								{
									OFFSET -8.67398 0.07538 0.40058
									CHANNELS 3 Zrotation Yrotation Xrotation
									End Site
									{
										OFFSET -5.24810 -0.21916 0.59204
									}
								}
							}
						}
					}
				}
			}
		}
	}
	JOINT LeftUpLegDummy
	{
		OFFSET 0 0 0
		CHANNELS 3 Zrotation Yrotation Xrotation
		JOINT LeftUpLeg
		{
			OFFSET 3.52197 -3.41223 0.04002
			CHANNELS 3 Zrotation Yrotation Xrotation
			JOINT LeftLeg
			{
				OFFSET -0.00012 -17.42399 1.60337
				CHANNELS 3 Zrotation Yrotation Xrotation
				JOINT LeftFoot
				{
					OFFSET -0.09972 -16.50070 -1.63802
					CHANNELS 3 Zrotation Yrotation Xrotation
					JOINT LeftToes
					{
						OFFSET -0.01575 -1.73823 3.34611
						CHANNELS 3 Zrotation Yrotation Xrotation
						End Site
						{
							OFFSET 0.03150 -0.01868 3.85031
						}
					}
				}
			}
		}
	}
}
MOTION
Frames: 6
Frame Time: 0.033333
-41.3802 39.8081 76.6526 -178.1100 3.2902 177.7140 0.0000 0.0000 0.0000 0.6204 -2.1088 2.5014 -1.4508 -4.5755 3.6420 0.0550 -0.0168 -3.5288 0.0000 -0.0000 -0.0000 0.0000 0.0000 0.0000 1.3613 0.0948 1.1349 2.4621 -0.4461 0.7973 -0.0000 0.0000 -0.0000 1.9189 -0.7231 -3.0317 -0.0000 0.0000 -0.0000 -33.9648 -2.7217 2.4898 -44.9910 -16.5521 -17.9119 -9.7180 4.9802 53.2387 15.3906 -2.9649 -1.0856 -0.0000 0.0000 -0.0000 34.7663 5.1212 3.5178 40.8307 5.8165 -14.9133 11.3547 -0.3852 25.1668 -10.9717 1.3259 -0.6224 0.0000 0.0000 0.0000 4.8713 3.5160 3.7906 1.5653 4.4579 6.2859 1.1709 -0.0189 -6.7828 0.0000 0.0000 -0.0000
-41.3694 39.8081 76.6368 -178.0610 3.2629 177.6500 0.0000 0.0000 0.0000 0.6956 -2.0750 2.6468 -1.4689 -4.6398 3.5568 0.0600 -0.0172 -3.5165 0.0000 -0.0000 -0.0000 0.0000 0.0000 0.0000 1.2222 0.1233 1.2174 2.7570 -0.4675 0.8040 -0.0000 0.0000 -0.0000 1.7785 -0.8459 -3.1611 -0.0000 0.0000 -0.0000 -34.2187 -2.7262 2.5076 -44.8171 -16.5293 -17.8137 -9.8025 4.9764 53.3249 15.7579 -3.4085 -1.1703 -0.0000 0.0000 -0.0000 34.4441 5.0519 3.4617 41.0707 5.7939 -15.0525 11.2978 -0.4250 25.1612 -11.6709 0.6430 -0.6008 0.0000 0.0000 0.0000 4.9624 3.5744 3.8926 1.5346 4.3789 6.2749 1.1709 -0.0189 -6.8000 0.0000 0.0000 -0.0000
-41.3546 39.8081 76.6166 -178.0250 3.2106 177.5900 0.0000 0.0000 0.0000 0.7712 -2.0360 2.8029 -1.5012 -4.7355 3.4589 0.0815 -0.0186 -3.5138 0.0000 -0.0000 -0.0000 0.0000 0.0000 0.0000 1.1227 0.1140 1.2654 2.9516 -0.5128 0.9017 -0.0000 0.0000 -0.0000 1.6571 -0.9811 -3.3783 -0.0000 0.0000 -0.0000 -34.4144 -2.7351 2.5235 -44.6532 -16.4062 -17.4759 -10.0296 4.9779 53.1958 16.5808 -3.9927 -1.3125 -0.0000 0.0000 -0.0000 34.0450 4.9647 3.3921 41.4620 5.8541 -15.1358 11.2736 -0.4837 25.1513 -11.9251 0.7943 -0.6273 0.0000 0.0000 0.0000 5.0419 3.6293 3.9918 1.5073 4.3107 6.2638 1.1719 -0.0189 -6.8061 0.0000 0.0000 -0.0000
-41.3449 39.8081 76.6051 -178.0280 3.1521 177.5890 0.0000 0.0000 0.0000 0.7903 -2.0238 2.8441 -1.5210 -4.8090 3.4306 0.0929 -0.0193 -3.5317 0.0000 -0.0000 -0.0000 0.0000 0.0000 0.0000 1.2204 0.0323 1.1814 2.7522 -0.5680 1.1085 -0.0000 0.0000 -0.0000 1.6894 -1.0372 -3.5365 -0.0000 0.0000 -0.0000 -34.3082 -2.7390 2.5184 -44.6575 -16.2363 -17.0235 -10.3053 4.9966 52.5045 16.9965 -3.7867 -1.3181 -0.0000 0.0000 -0.0000 34.0073 4.9609 3.3874 41.5966 5.9736 -15.1284 11.2717 -0.5605 25.3626 -11.0878 1.9855 -0.6875 0.0000 0.0000 0.0000 5.0514 3.6411 4.0006 1.5001 4.2923 6.2646 1.1816 -0.0196 -6.7927 0.0000 0.0000 -0.0000
-41.3383 39.8081 76.5981 -178.0400 3.1058 177.6250 0.0000 0.0000 0.0000 0.7785 -2.0404 2.8100 -1.5055 -4.8388 3.4525 0.0651 -0.0174 -3.5576 0.0000 -0.0000 -0.0000 0.0000 0.0000 0.0000 1.3675 -0.0490 1.0252 2.4634 -0.6078 1.3235 -0.0000 0.0000 -0.0000 1.7651 -1.0657 -3.5828 -0.0000 0.0000 -0.0000 -34.1056 -2.7358 2.5043 -44.7332 -16.1436 -16.7149 -10.4903 5.0238 51.5640 16.4973 -2.8187 -1.1474 -0.0000 0.0000 -0.0000 34.2701 5.0290 3.4373 41.3842 6.0250 -15.1794 11.2269 -0.6605 25.6933 -10.2176 2.6874 -0.6895 0.0000 0.0000 0.0000 5.0307 3.6172 3.9638 1.5182 4.2884 6.2572 1.2105 -0.0214 -6.7691 0.0000 0.0000 -0.0000
-41.3282 39.8081 76.5885 -178.0440 3.0822 177.6840 0.0000 0.0000 0.0000 0.7919 -2.0289 2.7563 -1.5085 -4.8697 3.4676 0.0371 -0.0155 -3.5723 0.0000 -0.0000 -0.0000 0.0000 0.0000 0.0000 1.3579 -0.0573 0.8831 2.4392 -0.6153 1.4331 -0.0000 0.0000 -0.0000 1.7522 -1.1437 -3.5426 -0.0000 0.0000 -0.0000 -34.0239 -2.7307 2.4971 -44.7866 -16.1689 -16.6499 -10.5292 5.0358 51.1603 15.6897 -2.2505 -1.0152 -0.0000 0.0000 -0.0000 34.5034 5.0887 3.4816 41.0708 5.9526 -15.3398 11.1442 -0.7675 25.8706 -10.3039 2.1596 -0.6514 0.0000 0.0000 0.0000 5.0067 3.5653 3.9284 1.5701 4.2994 6.2125 1.2399 -0.0233 -6.7281 0.0000 0.0000 -0.0000
